<mxfile host="app.diagrams.net" modified="2023-11-08T14:27:56.757Z" agent="Mozilla/5.0 (Macintosh; Intel Mac OS X 10_15_7) AppleWebKit/605.1.15 (KHTML, like Gecko) Version/17.1 Safari/605.1.15" etag="Ra6fy-fhm8ar5xEB_StE" version="22.0.8" type="github">
  <diagram name="Page-1" id="2C7uXkN3zX2vS8szzilh">
    <mxGraphModel dx="2049" dy="2350" grid="1" gridSize="10" guides="1" tooltips="1" connect="1" arrows="1" fold="1" page="1" pageScale="1" pageWidth="827" pageHeight="1169" math="0" shadow="0">
      <root>
        <mxCell id="0" />
        <mxCell id="1" parent="0" />
        <mxCell id="EAjrsyQGsAhH6B5kwbJ9-11" style="rounded=0;orthogonalLoop=1;jettySize=auto;html=1;exitX=0.5;exitY=0.5;exitDx=0;exitDy=0;exitPerimeter=0;entryX=0;entryY=0.5;entryDx=0;entryDy=0;endArrow=none;endFill=0;" edge="1" parent="1" source="EAjrsyQGsAhH6B5kwbJ9-8" target="EAjrsyQGsAhH6B5kwbJ9-10">
          <mxGeometry relative="1" as="geometry" />
        </mxCell>
        <mxCell id="EAjrsyQGsAhH6B5kwbJ9-17" style="rounded=0;orthogonalLoop=1;jettySize=auto;html=1;endArrow=none;endFill=0;strokeColor=default;" edge="1" parent="1" source="EAjrsyQGsAhH6B5kwbJ9-8" target="EAjrsyQGsAhH6B5kwbJ9-14">
          <mxGeometry relative="1" as="geometry" />
        </mxCell>
        <mxCell id="EAjrsyQGsAhH6B5kwbJ9-26" style="rounded=0;orthogonalLoop=1;jettySize=auto;html=1;entryX=0;entryY=0.5;entryDx=0;entryDy=0;" edge="1" parent="1" source="EAjrsyQGsAhH6B5kwbJ9-8" target="EAjrsyQGsAhH6B5kwbJ9-25">
          <mxGeometry relative="1" as="geometry" />
        </mxCell>
        <mxCell id="EAjrsyQGsAhH6B5kwbJ9-8" value="pasażer&lt;br&gt;" style="shape=umlActor;verticalLabelPosition=bottom;verticalAlign=top;html=1;outlineConnect=0;" vertex="1" parent="1">
          <mxGeometry x="130" y="240" width="30" height="60" as="geometry" />
        </mxCell>
        <mxCell id="EAjrsyQGsAhH6B5kwbJ9-15" style="edgeStyle=orthogonalEdgeStyle;rounded=0;orthogonalLoop=1;jettySize=auto;html=1;entryX=1;entryY=0.5;entryDx=0;entryDy=0;endArrow=none;endFill=0;" edge="1" parent="1" source="EAjrsyQGsAhH6B5kwbJ9-9" target="EAjrsyQGsAhH6B5kwbJ9-14">
          <mxGeometry relative="1" as="geometry">
            <Array as="points" />
          </mxGeometry>
        </mxCell>
        <mxCell id="EAjrsyQGsAhH6B5kwbJ9-9" value="przewodnik" style="shape=umlActor;verticalLabelPosition=bottom;verticalAlign=top;html=1;outlineConnect=0;" vertex="1" parent="1">
          <mxGeometry x="710" y="320" width="30" height="60" as="geometry" />
        </mxCell>
        <mxCell id="EAjrsyQGsAhH6B5kwbJ9-22" value="&amp;lt;&amp;lt;extends&amp;gt;&amp;gt;" style="edgeStyle=orthogonalEdgeStyle;rounded=0;orthogonalLoop=1;jettySize=auto;html=1;exitX=0.5;exitY=0;exitDx=0;exitDy=0;entryX=0.5;entryY=1;entryDx=0;entryDy=0;dashed=1;" edge="1" parent="1">
          <mxGeometry relative="1" as="geometry">
            <mxPoint x="450" y="220" as="sourcePoint" />
            <mxPoint x="474" y="80" as="targetPoint" />
            <Array as="points">
              <mxPoint x="470" y="220" />
              <mxPoint x="470" y="150" />
              <mxPoint x="468" y="150" />
              <mxPoint x="468" y="80" />
            </Array>
          </mxGeometry>
        </mxCell>
        <mxCell id="EAjrsyQGsAhH6B5kwbJ9-10" value="odprawa u pracownika" style="rounded=0;whiteSpace=wrap;html=1;" vertex="1" parent="1">
          <mxGeometry x="390" y="220" width="120" height="60" as="geometry" />
        </mxCell>
        <mxCell id="EAjrsyQGsAhH6B5kwbJ9-13" style="rounded=0;orthogonalLoop=1;jettySize=auto;html=1;entryX=1;entryY=0.5;entryDx=0;entryDy=0;endArrow=none;endFill=0;" edge="1" parent="1" source="EAjrsyQGsAhH6B5kwbJ9-12" target="EAjrsyQGsAhH6B5kwbJ9-10">
          <mxGeometry relative="1" as="geometry" />
        </mxCell>
        <mxCell id="EAjrsyQGsAhH6B5kwbJ9-12" value="pracownik lotniska" style="shape=umlActor;verticalLabelPosition=bottom;verticalAlign=top;html=1;outlineConnect=0;" vertex="1" parent="1">
          <mxGeometry x="710" y="220" width="30" height="60" as="geometry" />
        </mxCell>
        <mxCell id="EAjrsyQGsAhH6B5kwbJ9-29" value="&amp;lt;&amp;lt;extends&amp;gt;&amp;gt;" style="edgeStyle=orthogonalEdgeStyle;rounded=0;orthogonalLoop=1;jettySize=auto;html=1;exitX=0.5;exitY=0;exitDx=0;exitDy=0;curved=1;dashed=1;" edge="1" parent="1" source="EAjrsyQGsAhH6B5kwbJ9-14" target="EAjrsyQGsAhH6B5kwbJ9-20">
          <mxGeometry relative="1" as="geometry">
            <Array as="points">
              <mxPoint x="560" y="320" />
              <mxPoint x="560" y="200" />
              <mxPoint x="510" y="200" />
            </Array>
          </mxGeometry>
        </mxCell>
        <mxCell id="EAjrsyQGsAhH6B5kwbJ9-14" value="odprawa grupowa" style="rounded=0;whiteSpace=wrap;html=1;" vertex="1" parent="1">
          <mxGeometry x="470" y="320" width="120" height="60" as="geometry" />
        </mxCell>
        <mxCell id="EAjrsyQGsAhH6B5kwbJ9-24" value="&amp;lt;&amp;lt;includes&amp;gt;&amp;gt;" style="edgeStyle=orthogonalEdgeStyle;rounded=0;orthogonalLoop=1;jettySize=auto;html=1;exitX=1;exitY=0.5;exitDx=0;exitDy=0;entryX=0;entryY=0.5;entryDx=0;entryDy=0;endArrow=none;endFill=0;startArrow=classic;startFill=1;" edge="1" parent="1" source="EAjrsyQGsAhH6B5kwbJ9-20" target="EAjrsyQGsAhH6B5kwbJ9-23">
          <mxGeometry relative="1" as="geometry" />
        </mxCell>
        <mxCell id="EAjrsyQGsAhH6B5kwbJ9-20" value="zostawienie bagażu nadawanego" style="rounded=0;whiteSpace=wrap;html=1;" vertex="1" parent="1">
          <mxGeometry x="414" y="20" width="120" height="60" as="geometry" />
        </mxCell>
        <mxCell id="EAjrsyQGsAhH6B5kwbJ9-23" value="odprawienie bagażu" style="rounded=0;whiteSpace=wrap;html=1;" vertex="1" parent="1">
          <mxGeometry x="620" y="20" width="120" height="60" as="geometry" />
        </mxCell>
        <mxCell id="EAjrsyQGsAhH6B5kwbJ9-27" value="&amp;lt;&amp;lt;extends&amp;gt;&amp;gt;" style="rounded=0;orthogonalLoop=1;jettySize=auto;html=1;exitX=0.5;exitY=0;exitDx=0;exitDy=0;entryX=0;entryY=0.5;entryDx=0;entryDy=0;endArrow=classic;endFill=1;dashed=1;" edge="1" parent="1" source="EAjrsyQGsAhH6B5kwbJ9-25" target="EAjrsyQGsAhH6B5kwbJ9-20">
          <mxGeometry relative="1" as="geometry" />
        </mxCell>
        <mxCell id="EAjrsyQGsAhH6B5kwbJ9-25" value="odprawa w stanowisku samoobsługowym" style="rounded=0;whiteSpace=wrap;html=1;" vertex="1" parent="1">
          <mxGeometry x="270" y="120" width="120" height="60" as="geometry" />
        </mxCell>
        <mxCell id="EAjrsyQGsAhH6B5kwbJ9-30" value="&lt;font style=&quot;font-size: 40px;&quot;&gt;Lotnisko&lt;/font&gt;" style="whiteSpace=wrap;html=1;aspect=fixed;fillColor=none;labelPosition=center;verticalLabelPosition=top;align=center;verticalAlign=bottom;" vertex="1" parent="1">
          <mxGeometry x="100" y="-130" width="730" height="730" as="geometry" />
        </mxCell>
        <mxCell id="EAjrsyQGsAhH6B5kwbJ9-31" value="" style="rounded=0;whiteSpace=wrap;html=1;fillColor=none;" vertex="1" parent="1">
          <mxGeometry x="110" y="760" width="720" height="750" as="geometry" />
        </mxCell>
      </root>
    </mxGraphModel>
  </diagram>
</mxfile>
